<?xml version="1.0" encoding="UTF-8"?>
<svg width="351px" height="306px" viewBox="0 0 351 306" version="1.1" xmlns="http://www.w3.org/2000/svg" xmlns:xlink="http://www.w3.org/1999/xlink">
    <!-- Generator: Sketch 54.1 (76490) - https://sketchapp.com -->
    <title>Group 97</title>
    <desc>Created with Sketch.</desc>
    <defs>
        <polygon id="path-1" points="0.2424 0.747 1.8904 0.747 1.8904 8.962275 0.2424 8.962275"></polygon>
    </defs>
    <g id="Page-1" stroke="none" stroke-width="1" fill="none" fill-rule="evenodd" opacity="0.300000012">
        <g id="08_Screen_Call" transform="translate(-25.000000, -125.000000)">
            <g id="Group-97" transform="translate(25.000000, 125.000000)">
                <path d="M183,62.1330883 C128.983655,62.1330883 85.0378904,106.260447 85.0378904,160.49922 C85.0378904,214.739553 128.983655,258.866132 183,258.866132 C237.015568,258.866132 280.960556,214.739553 280.960556,160.49922 C280.960556,106.260447 237.015568,62.1330883 183,62.1330883 M183,282 C116.280461,282 62,227.49524 62,160.49922 C62,93.5039804 116.280461,39 183,39 C249.719539,39 304,93.5039804 304,160.49922 C304,227.49524 249.719539,282 183,282" id="Fill-1" fill="#D3D3D3"></path>
                <path d="M180.524697,306 C100.833328,306 36,240.728804 36,160.5 C36,80.2711959 100.833328,15 180.524697,15 L180.524697,17.5739984 C102.243136,17.5739984 38.5567308,81.6905252 38.5567308,160.5 C38.5567308,239.309475 102.243136,303.426002 180.524697,303.426002 C204.386743,303.426002 227.985904,297.352084 248.768551,285.860044 L250,288.117074 C228.840474,299.816002 204.816354,306 180.524697,306" id="Fill-3" fill="#A9A9A9"></path>
                <path d="M305.234788,229 L302.964734,227.796824 C313.737752,207.383429 319.432362,184.306026 319.432362,161.057633 C319.432362,99.4372119 280.277439,44.9374697 222,25.442268 L222.812514,23 C282.140067,42.8473317 322,98.3277289 322,161.057633 C322,184.724522 316.203339,208.218079 305.234788,229" id="Fill-5" fill="#A9A9A9"></path>
                <path d="M64.5003991,17.6317517 C58.5073171,17.6317517 53.6317517,22.5073171 53.6317517,28.5003991 C53.6317517,34.4934812 58.5073171,39.3682483 64.5003991,39.3682483 C70.4926829,39.3682483 75.3682483,34.4934812 75.3682483,28.5003991 C75.3682483,22.5073171 70.4926829,17.6317517 64.5003991,17.6317517 M64.5003991,42 C57.0561419,42 51,35.9438581 51,28.5003991 C51,21.0561419 57.0561419,15 64.5003991,15 C71.9446563,15 78,21.0561419 78,28.5003991 C78,35.9438581 71.9446563,42 64.5003991,42" id="Fill-7" fill="#C2C2C2"></path>
                <path d="M64.5,36 C60.3576935,36 57,32.6423065 57,28.5 C57,24.3576935 60.3576935,21 64.5,21 C68.6423065,21 72,24.3576935 72,28.5 C72,32.6423065 68.6423065,36 64.5,36 Z" id="Fill-9" fill="#D7D7D7"></path>
                <path d="M293,251.219273 C289.260797,251.219273 286.219273,254.260797 286.219273,257.99926 C286.219273,261.738463 289.260797,264.779987 293,264.779987 C296.738463,264.779987 299.779987,261.738463 299.779987,257.99926 C299.779987,254.260797 296.738463,251.219273 293,251.219273 Z M293,266 C288.588273,266 285,262.410987 285,257.99926 C285,253.588273 288.588273,250 293,250 C297.410987,250 301,253.588273 301,257.99926 C301,262.410987 297.410987,266 293,266 Z M298,258 C298,260.761205 295.761205,263 293,263 C290.238795,263 288,260.761205 288,258 C288,255.238795 290.238795,253 293,253 C295.761205,253 298,255.238795 298,258 Z" id="Combined-Shape" fill="#C7C7C7"></path>
                <path d="M203,13.2192731 C199.261537,13.2192731 196.220013,16.2607972 196.220013,20 C196.220013,23.738463 199.261537,26.7799871 203,26.7799871 C206.739203,26.7799871 209.780727,23.738463 209.780727,20 C209.780727,16.2607972 206.739203,13.2192731 203,13.2192731 Z M203,28 C198.589013,28 195,24.4109868 195,20 C195,15.5882734 198.589013,12 203,12 C207.411727,12 211,15.5882734 211,20 C211,24.4109868 207.411727,28 203,28 Z M207,20.0004327 C207,22.2096268 205.208761,24 202.999567,24 C200.791239,24 199,22.2096268 199,20.0004327 C199,17.7912385 200.791239,16 202.999567,16 C205.208761,16 207,17.7912385 207,20.0004327 Z" id="Combined-Shape" fill="#BFBFBF"></path>
                <g id="Group-21" transform="translate(103.000000, 0.000000)">
                    <mask id="mask-2" fill="white">
                        <use xlink:href="#path-1"></use>
                    </mask>
                    <g id="Clip-20"></g>
                    <path d="M1.0664,8.962275 C0.6114,8.962275 0.2424,8.685525 0.2424,8.344275 L0.2424,1.365525 C0.2424,1.024275 0.6114,0.746775 1.0664,0.746775 C1.5214,0.746775 1.8904,1.024275 1.8904,1.365525 L1.8904,8.344275 C1.8904,8.685525 1.5214,8.962275 1.0664,8.962275" id="Fill-19" fill="#7ADDFF" mask="url(#mask-2)"></path>
                </g>
                <path d="M104.5,23 C104.223908,23 104,22.7305094 104,22.3982107 L104,15.6017893 C104,15.2694906 104.223908,15 104.5,15 C104.776092,15 105,15.2694906 105,15.6017893 L105,22.3982107 C105,22.7305094 104.776092,23 104.5,23" id="Fill-22" fill="#7ADDFF"></path>
                <path d="M114.398156,12 L107.601844,12 C107.269515,12 107,11.7760922 107,11.5 C107,11.2239078 107.269515,11 107.601844,11 L114.398156,11 C114.730485,11 115,11.2239078 115,11.5 C115,11.7760922 114.730485,12 114.398156,12" id="Fill-24" fill="#7ADDFF"></path>
                <path d="M101.398211,12 L94.6017893,12 C94.2694906,12 94,11.7760922 94,11.5 C94,11.2239078 94.2694906,11 94.6017893,11 L101.398211,11 C101.730509,11 102,11.2239078 102,11.5 C102,11.7760922 101.730509,12 101.398211,12" id="Fill-26" fill="#7ADDFF"></path>
                <path d="M106.601221,9 C106.447361,9 106.293501,8.9409316 106.176101,8.82425329 C105.9413,8.58943818 105.9413,8.20877518 106.176101,7.97396007 L110.974205,3.1755644 C111.209006,2.94147853 111.588916,2.94147853 111.824446,3.1755644 C112.058518,3.41037951 112.058518,3.79104251 111.824446,4.02585762 L107.026342,8.82425329 C106.908942,8.9409316 106.755082,9 106.601221,9" id="Fill-28" fill="#7ADDFF"></path>
                <path d="M96.6011666,19 C96.4473205,19 96.2934743,18.940937 96.1760846,18.8242693 C95.9413051,18.5894756 95.9413051,18.2088473 96.1760846,17.9740536 L100.973751,13.1760953 C101.208531,12.9413016 101.589136,12.9413016 101.823915,13.1760953 C102.058695,13.410889 102.058695,13.7907881 101.823915,14.026311 L97.0262486,18.8242693 C96.9088589,18.940937 96.7550128,19 96.6011666,19" id="Fill-30" fill="#7ADDFF"></path>
                <path d="M111.398779,19 C111.244918,19 111.091058,18.940937 110.973658,18.8242693 L106.175554,14.026311 C105.941482,13.7907881 105.941482,13.4101598 106.175554,13.1760953 C106.411084,12.9413016 106.790994,12.9413016 107.025795,13.1760953 L111.823899,17.9740536 C112.0587,18.2088473 112.0587,18.5894756 111.823899,18.8242693 C111.706499,18.940937 111.552639,19 111.398779,19" id="Fill-32" fill="#7ADDFF"></path>
                <path d="M101.398833,9 C101.244987,9 101.091141,8.9409316 100.973751,8.82425329 L96.1760846,4.02585762 C95.9413051,3.79104251 95.9413051,3.41037951 96.1760846,3.1755644 C96.410864,2.94147853 96.7914692,2.94147853 97.0262486,3.1755644 L101.823915,7.97396007 C102.058695,8.20877518 102.058695,8.58943818 101.823915,8.82425329 C101.706526,8.9409316 101.55268,9 101.398833,9" id="Fill-34" fill="#7ADDFF"></path>
                <path d="M323.600729,242 C323.446855,242 323.292981,241.941671 323.17557,241.824285 C322.941477,241.589513 322.941477,241.208919 323.17557,240.974147 L327.974111,236.176626 C328.208933,235.941125 328.589608,235.941125 328.82443,236.176626 C329.058523,236.411398 329.058523,236.791263 328.82443,237.026764 L324.025889,241.824285 C323.908478,241.941671 323.754603,242 323.600729,242 Z M313.600729,252 C313.446855,252 313.292981,251.941671 313.17557,251.824285 C312.941477,251.589513 312.941477,251.208919 313.17557,250.974147 L317.974111,246.176626 C318.208933,245.941125 318.589608,245.941125 318.82443,246.176626 C319.058523,246.411398 319.058523,246.791263 318.82443,247.026764 L314.025889,251.824285 C313.908478,251.941671 313.754603,252 313.600729,252 Z M328.399271,252 C328.245397,252 328.091522,251.941671 327.974111,251.824285 L323.17557,247.026764 C322.941477,246.791263 322.941477,246.411398 323.17557,246.176626 C323.410392,245.941125 323.791067,245.941125 324.025889,246.176626 L328.82443,250.974147 C329.058523,251.208919 329.058523,251.589513 328.82443,251.824285 C328.707019,251.941671 328.553145,252 328.399271,252 Z M318.399271,242 C318.245397,242 318.091522,241.941671 317.974111,241.824285 L313.17557,237.026764 C312.941477,236.791263 312.941477,236.411398 313.17557,236.176626 C313.410392,235.941125 313.791067,235.941125 314.025889,236.176626 L318.82443,240.974147 C319.058523,241.208919 319.058523,241.589513 318.82443,241.824285 C318.707019,241.941671 318.553145,242 318.399271,242 Z" id="Combined-Shape" fill="#CFCFCF"></path>
                <path d="M336,67 C335.448246,67 335,66.6294339 335,66.1724024 L335,56.8275976 C335,56.3705661 335.448246,56 336,56 C336.551754,56 337,56.3705661 337,56.8275976 L337,66.1724024 C337,66.6294339 336.551754,67 336,67 Z M336,85 C335.448246,85 335,84.6294339 335,84.1724024 L335,74.8275976 C335,74.3705661 335.448246,74 336,74 C336.551754,74 337,74.3705661 337,74.8275976 L337,84.1724024 C337,84.6294339 336.551754,85 336,85 Z M350.478,70.3942075 C350.47805,70.3980156 350.478075,70.4018298 350.478075,70.40565 C350.478075,70.4094641 350.47805,70.4132724 350.478,70.4170746 L350.478,71.2599 L339.123825,71.2599 L339.123825,69.5514 L350.478,69.5514 L350.478,70.3942075 Z M332.171731,71 L322.828269,71 C322.371268,71 322,70.5522388 322,70 C322,69.4468832 322.371268,69 322.828269,69 L332.171731,69 C332.628732,69 333,69.4468832 333,70 C333,70.5522388 332.628732,71 332.171731,71 Z M338.901444,68 C338.670345,68 338.440038,67.9121449 338.263548,67.7364348 C337.912151,67.384223 337.912151,66.8127693 338.263548,66.4605576 L345.460857,59.2635652 C345.813045,58.9121449 346.38367,58.9121449 346.735859,59.2635652 C347.088047,59.615777 347.088047,60.1864392 346.735859,60.538651 L339.539341,67.7364348 C339.362851,67.9121449 339.132543,68 338.901444,68 Z M325.901444,81 C325.670345,81 325.440038,80.9121449 325.263548,80.7364348 C324.912151,80.384223 324.912151,79.8127693 325.263548,79.4605576 L332.460857,72.2635652 C332.813045,71.9121449 333.38367,71.9121449 333.735859,72.2635652 C334.088047,72.615777 334.088047,73.1864392 333.735859,73.538651 L326.539341,80.7364348 C326.362851,80.9121449 326.132543,81 325.901444,81 Z M346.098556,81 C345.867457,81 345.637149,80.9121449 345.460659,80.7364348 L338.264141,73.538651 C337.911953,73.1864392 337.911953,72.615777 338.264141,72.2635652 C338.61633,71.9121449 339.186955,71.9121449 339.539143,72.2635652 L346.736452,79.4605576 C347.087849,79.8127693 347.087849,80.384223 346.736452,80.7364348 C346.559962,80.9121449 346.329655,81 346.098556,81 Z M333.098556,68 C332.867457,68 332.637149,67.9121449 332.460659,67.7364348 L325.264141,60.538651 C324.911953,60.1864392 324.911953,59.615777 325.264141,59.2635652 C325.61633,58.9121449 326.186955,58.9121449 326.539143,59.2635652 L333.736452,66.4605576 C334.087849,66.8127693 334.087849,67.384223 333.736452,67.7364348 C333.559962,67.9121449 333.329655,68 333.098556,68 Z" id="Combined-Shape" fill="#BEBEBE"></path>
                <path d="M54,291 C53.4481013,291 53,290.59596 53,290.096627 L53,279.902611 C53,279.40404 53.4481013,279 54,279 C54.5518987,279 55,279.40404 55,279.902611 L55,290.096627 C55,290.59596 54.5518987,291 54,291" id="Fill-61" fill="#A7A7A7"></path>
                <path d="M59.096684,286 L48.903316,286 C48.404777,286 48,285.552554 48,284.999578 C48,284.447446 48.404777,284 48.903316,284 L59.096684,284 C59.595223,284 60,284.447446 60,284.999578 C60,285.552554 59.595223,286 59.096684,286" id="Fill-63" fill="#A7A7A7"></path>
                <path d="M10.5,145 C9.67149877,145 9,144.292493 9,143.419564 L9,125.580436 C9,124.707507 9.67149877,124 10.5,124 C11.3285012,124 12,124.707507 12,125.580436 L12,143.419564 C12,144.292493 11.3285012,145 10.5,145" id="Fill-65" fill="#C6C6C6"></path>
                <path d="M19.4195636,136 L1.57965976,136 C0.706730769,136 0,135.328336 0,134.499631 C0,133.670927 0.706730769,133 1.57965976,133 L19.4195636,133 C20.2924926,133 21,133.670927 21,134.499631 C21,135.328336 20.2924926,136 19.4195636,136" id="Fill-67" fill="#C6C6C6"></path>
                <path d="M23,197 C22.4478483,197 22,196.528159 22,195.946427 L22,184.053573 C22,183.471841 22.4478483,183 23,183 C23.5521517,183 24,183.471841 24,184.053573 L24,195.946427 C24,196.528159 23.5521517,197 23,197" id="Fill-73" fill="#DDF4FC"></path>
                <path d="M28.9464266,191 L17.0535734,191 C16.471841,191 16,190.552152 16,190 C16,189.447848 16.471841,189 17.0535734,189 L28.9464266,189 C29.528159,189 30,189.447848 30,190 C30,190.552152 29.528159,191 28.9464266,191" id="Fill-75" fill="#DDF4FC"></path>
                <path d="M330,114 C329.447523,114 329,113.596034 329,113.097328 L329,102.90343 C329,102.404724 329.447523,102 330,102 C330.552477,102 331,102.404724 331,102.90343 L331,113.097328 C331,113.596034 330.552477,114 330,114" id="Fill-77" fill="#DDF4FC"></path>
                <path d="M335.097271,109 L324.903487,109 C324.40475,109 324,108.552665 324,108.00042 C324,107.447335 324.40475,107 324.903487,107 L335.097271,107 C335.596008,107 336,107.447335 336,108.00042 C336,108.552665 335.596008,109 335.097271,109" id="Fill-79" fill="#DDF4FC"></path>
                <path d="M13.5021134,70.2818801 C10.8505081,70.2818801 8.38780331,71.9936328 7.56146015,74.6561001 C6.54543897,77.9295745 8.38236173,81.4199331 11.6558623,82.4359462 C13.2424722,82.9272394 14.9239212,82.7725443 16.3931485,81.9998457 C17.8623757,81.2263698 18.9429185,79.9273967 19.4349931,78.3415768 L19.4349931,78.3415768 C19.927845,76.7557568 19.7723712,75.0735439 18.9996665,73.603551 C18.2261844,72.1343355 16.9272009,71.0545787 15.3413683,70.5617307 C14.7303563,70.3720542 14.1107933,70.2818801 13.5021134,70.2818801 M13.507555,84 C12.7605035,84 12.0095651,83.8872824 11.2757289,83.6595151 C7.3274721,82.4336141 5.11197068,78.2249724 6.33788147,74.2767471 C7.56301489,70.3277445 11.773245,68.1114834 15.7207243,69.3381618 C17.6338293,69.9320669 19.201005,71.2349268 20.1338477,73.0073138 C21.0659131,74.7797008 21.253259,76.8086175 20.6593491,78.7217071 L20.6593491,78.7209298 C20.0654393,80.6340194 18.7625689,82.2011827 16.9901678,83.1340179 C15.8979645,83.708489 14.7078126,84 13.507555,84" id="Fill-81" fill="#DDF4FC"></path>
                <path d="M11.762124,83.4817722 C11.3505264,83.35563 10.9635938,83.1914931 10.5959307,83 C10.5805151,83.0372348 10.5604748,83.07143 10.548913,83.1101845 L6.05756592,97.3756578 C5.84945476,98.0360049 6.22328406,98.7381462 6.89386446,98.9433173 C7.56444486,99.1484885 8.27664749,98.7791804 8.48398786,98.1180734 L12.975335,83.85336 C12.9876675,83.8138455 12.9915214,83.775091 13,83.7355765 C12.5868608,83.6884632 12.1729508,83.6079145 11.762124,83.4817722" id="Fill-83" fill="#DDF4FC"></path>
                <path d="M16.9095344,75.5928189 C16.5828389,76.6472181 15.4621022,77.2365506 14.4075977,76.9098877 C13.3530931,76.5824808 12.7629575,75.4618561 13.0903972,74.407457 C13.4178369,73.3530578 14.5378294,72.7629812 15.5930781,73.0903882 C16.6475826,73.4177951 17.236974,74.5384198 16.9095344,75.5928189" id="Fill-85" fill="#DDF4FC"></path>
                <path d="M264.550115,274.291874 C264.411104,274.376035 264.319204,274.521082 264.319204,274.685957 L264.319204,285.314781 C264.319204,285.569112 264.552947,285.784372 264.829915,285.784372 L282.170085,285.784372 C282.451856,285.784372 282.680796,285.573535 282.680796,285.314781 L282.680796,274.685957 C282.680796,274.521147 282.588967,274.376148 282.450047,274.291972 L273.941091,280.853875 C273.814757,280.951533 273.656636,281 273.500145,281 C273.343654,281 273.185533,280.951533 273.059199,280.853875 L264.550115,274.291874 Z M280.501337,274.214891 L266.498953,274.214891 L273.500145,279.61398 L280.501337,274.214891 Z M264.426335,273.041291 C264.503158,273.014487 264.586294,273 264.672265,273 L282.328025,273 C282.414143,273 282.497415,273.014536 282.574324,273.041428 C283.389731,273.211391 284,273.884248 284,274.685957 L284,285.314781 C284,286.243642 283.1795,287 282.170085,287 L264.829915,287 C263.8205,287 263,286.243642 263,285.314781 L263,274.685957 C263,273.884032 263.610598,273.211028 264.426335,273.041291 Z" id="Combined-Shape" fill="#C8C8C8"></path>
                <path d="M322,32.5 C322,48.7923882 309.016246,62 293,62 C276.983754,62 264,48.7923882 264,32.5 C264,16.2076118 276.983754,3 293,3 C309.016246,3 322,16.2076118 322,32.5" id="Fill-91" fill="#BBBBBB"></path>
                <polygon id="Fill-93" fill="#BBBBBB" points="264 33 264 62 296 61.8727083"></polygon>
                <path d="M292.331377,35.1875436 C292.310635,35.1875436 292.143899,34.9264606 291.831171,34.4035105 C291.517646,33.8805605 291.173804,33.3066483 290.79885,32.6817739 C290.423098,32.0561156 290.073672,31.4822034 289.750573,30.9600374 C289.426676,30.4370873 289.265525,30.1658119 289.265525,30.144643 C288.952797,29.4688065 288.733409,28.8227633 288.608158,28.2080814 C288.483705,27.5926154 288.681553,27.131604 289.203299,26.824263 L284.853826,19.6291917 C284.56184,19.8346084 284.207628,20.2799391 283.790391,20.9667521 C283.373155,21.653565 283.117867,22.6226299 283.023729,23.8723786 C282.930389,25.1229113 283.112282,26.6760808 283.571801,28.531103 C284.030522,30.3853411 285.010988,32.5845538 286.512402,35.125605 C288.07684,37.8117022 289.598995,39.8509722 291.080465,41.2449829 C292.561136,42.6382097 293.910972,43.6221711 295.131569,44.1960833 C296.352166,44.7707796 297.383689,45.0373508 298.229332,44.995797 C299.073378,44.9550273 299.652563,44.852319 299.965291,44.6884561 L295.709956,37.6470553 C295.209751,37.9340114 294.714332,37.8571761 294.224498,37.4165495 C293.733866,36.975923 293.102826,36.2326596 292.331377,35.1875436 M302.874779,41.9513967 C302.874779,41.9513967 302.702459,41.6652246 302.358618,41.0905284 C302.014777,40.5166162 301.634238,39.8870377 301.217001,39.2002247 C300.799764,38.5134118 300.419226,37.8830492 300.074586,37.309137 C299.730745,36.7352248 299.558426,36.4482687 299.558426,36.4482687 C299.433175,36.2428521 299.245698,36.1095664 298.995994,36.0484119 C298.745492,35.9872573 298.505362,36.0178346 298.275603,36.1409278 L296.273186,37.309137 L300.497408,44.3811151 L301.513774,43.7813298 L302.530937,43.1815446 C302.759899,43.0592354 302.905892,42.8742036 302.968916,42.6280172 C303.031143,42.3826149 303.000029,42.1568134 302.874779,41.9513967 M291.768147,25.3487128 L291.768147,25.3181355 C291.997907,25.1942583 292.143899,25.0107946 292.206126,24.7646082 C292.26915,24.5184218 292.237239,24.2926203 292.112786,24.0879877 C292.112786,24.0879877 291.934882,23.7908391 291.58067,23.1965421 C291.226458,22.601461 290.835548,21.9562018 290.407142,21.2591964 C289.979534,20.562191 289.588624,19.9161478 289.234412,19.3218507 C288.879402,18.7275537 288.702296,18.4304052 288.702296,18.4304052 C288.577045,18.2257725 288.389568,18.0924869 288.139066,18.0305483 C287.889362,17.9693937 287.649232,17.999971 287.419473,18.1230642 L285.417056,19.2912735 L289.734617,26.5169221 C289.734617,26.5169221 290.073672,26.3216978 290.751781,25.9328174 C291.42989,25.543153 291.768147,25.3487128 291.768147,25.3487128" id="Fill-95" fill="#FFFFFF"></path>
            </g>
        </g>
    </g>
</svg>