<?xml version="1.0" encoding="UTF-8"?>
<svg width="45px" height="45px" viewBox="0 0 45 45" version="1.1" xmlns="http://www.w3.org/2000/svg" xmlns:xlink="http://www.w3.org/1999/xlink">
    <!-- Generator: Sketch 54.1 (76490) - https://sketchapp.com -->
    <title>Group</title>
    <desc>Created with Sketch.</desc>
    <g id="Page-1" stroke="none" stroke-width="1" fill="none" fill-rule="evenodd">
        <g id="10_Screen_Call_Video" transform="translate(-20.000000, -45.000000)" fill="#FFFFFF">
            <g id="Group" transform="translate(21.000000, 46.000000)">
                <circle id="Oval" stroke-opacity="0.5" stroke="#FFFFFF" fill-opacity="0.2" cx="21.5" cy="21.5" r="21.5"></circle>
                <path d="M13.0393519,14.7439236 C15.4033684,12.8775962 18.2235553,11.9444444 21.5,11.9444444 C24.7764447,11.9444444 27.5862638,12.8775962 29.9295448,14.7439236 C32.2728219,16.610251 33.4444444,18.87055 33.4444444,21.5248843 C33.4444444,24.1377434 32.2935574,26.3461995 29.9917515,28.1503183 C27.6899495,29.9544362 24.8801305,30.8564815 21.5622106,30.8564815 C19.7788294,30.8564815 18.2235792,30.628378 16.896412,30.1721644 L16.7719907,30.1721644 C16.5231481,30.0892166 16.3157806,30.0477431 16.1498843,30.0477431 C15.9010417,30.0477431 15.6521991,30.0892166 15.4033565,30.1721644 L15.4655671,30.1721644 L15.4033565,30.1721644 C15.3618814,30.1721644 15.2374641,30.2136379 15.0300926,30.2965856 L14.78125,30.4210069 L11.6707176,31.7896412 L11.5462963,31.8518519 L11.3596644,31.8518519 L11.1730324,31.8518519 C10.7997665,31.7689039 10.6546101,31.5615372 10.7375579,31.2297454 C11.4426153,28.8657288 11.7951389,27.6630029 11.7951389,27.6215278 C11.7951389,27.3726852 11.732929,27.1445821 11.6085069,26.9372106 L11.6707176,26.9994213 L11.421875,26.7505787 C10.1776557,25.174569 9.55555556,23.4326868 9.55555556,21.5248843 C9.55555556,18.87055 10.7168096,16.610251 13.0393519,14.7439236 Z" id="Fill-1"></path>
            </g>
        </g>
    </g>
</svg>