<?xml version="1.0" encoding="UTF-8"?>
<svg width="45px" height="45px" viewBox="0 0 45 45" version="1.1" xmlns="http://www.w3.org/2000/svg" xmlns:xlink="http://www.w3.org/1999/xlink">
    <!-- Generator: Sketch 54.1 (76490) - https://sketchapp.com -->
    <title>Group</title>
    <desc>Created with Sketch.</desc>
    <g id="Page-1" stroke="none" stroke-width="1" fill="none" fill-rule="evenodd">
        <g id="10_Screen_Call_Video" transform="translate(-359.000000, -45.000000)" fill="#FFFFFF">
            <g id="Group" transform="translate(360.000000, 46.000000)">
                <circle id="Oval" stroke-opacity="0.5" stroke="#FFFFFF" fill-opacity="0.2" cx="21.5" cy="21.5" r="21.5"></circle>
                <path d="M31.125,14 C31.666668,14 32.11458,14.1875 32.468752,14.5625 C32.82292,14.9375 33,15.395832 33,15.9375 L33,26.9375 C33,27.4791692 32.82292,27.9583312 32.468752,28.375 C32.11458,28.7916688 31.666668,29 31.125,29 L11.125,29 C10.5833308,29 10.093752,28.7916688 9.65625,28.375 C9.2187478,27.9583312 9,27.4791692 9,26.9375 L9,15.9375 C9,15.395832 9.20833124,14.9375 9.625,14.5625 C10.0416688,14.1875 10.5416636,14 11.125,14 L11.9375,14 L11.9375,13 L14.0625,13 L14.0625,14 L14.875,14 C15.95834,12.749992 16.718748,11.9375 17.156248,11.5625 C17.593752,11.1875 17.979164,11 18.3125,11 L23.8125,11 C24.145836,11 24.531248,11.1875 24.968752,11.5625 C25.406252,11.9375 26.16666,12.749992 27.25,14 L31.125,14 Z M24.5625,24.6875 L24.6875,24.5625 L24,23.8125 L23.875,23.9375 C23.041664,24.645836 22.08334,25 21,25 C19.91666,25 18.94792,24.614588 18.093752,23.843752 C17.23958,23.072912 16.729168,22.166672 16.5625,21.125 L18.5,21.125 L16.0625,18 L13.6875,21.125 L15.5625,21.125 C15.729168,22.45834 16.333328,23.60416 17.375,24.5625 C18.416672,25.520838 19.624992,26 21,26 C22.375008,26 23.562496,25.5625044 24.5625,24.6875 Z M25.9375,23.1875 L28.3125,20 L26.4375,20 C26.270832,18.458324 25.70834,17.270836 24.75,16.4375 C23.708328,15.47916 22.45834,15 21,15 C19.624992,15 18.437504,15.437496 17.4375,16.3125 L17.3125,16.4375 L18,17.1875 L18.125,17.0625 C18.958336,16.354164 19.91666,16 21,16 C22.125004,16 23.104164,16.385412 23.9375,17.156248 C24.770836,17.927088 25.270832,18.874996 25.4375,20 L23.5,20 L25.9375,23.1875 Z" id="Fill-1"></path>
            </g>
        </g>
    </g>
</svg>